<svg aria-hidden="true" style="position: absolute; width: 0; height: 0; overflow: hidden;" version="1.1" xmlns="http://www.w3.org/2000/svg" xmlns:xlink="http://www.w3.org/1999/xlink">
<defs>
<symbol id="icon-sort" viewBox="0 0 28 28">
<path d="M19 24.5v3c0 0.281-0.219 0.5-0.5 0.5h-4c-0.281 0-0.5-0.219-0.5-0.5v-3c0-0.281 0.219-0.5 0.5-0.5h4c0.281 0 0.5 0.219 0.5 0.5zM11.5 22.5c0 0.141-0.063 0.266-0.156 0.375l-4.984 4.984c-0.109 0.094-0.234 0.141-0.359 0.141s-0.25-0.047-0.359-0.141l-5-5c-0.141-0.156-0.187-0.359-0.109-0.547s0.266-0.313 0.469-0.313h3v-21.5c0-0.281 0.219-0.5 0.5-0.5h3c0.281 0 0.5 0.219 0.5 0.5v21.5h3c0.281 0 0.5 0.219 0.5 0.5zM22 16.5v3c0 0.281-0.219 0.5-0.5 0.5h-7c-0.281 0-0.5-0.219-0.5-0.5v-3c0-0.281 0.219-0.5 0.5-0.5h7c0.281 0 0.5 0.219 0.5 0.5zM25 8.5v3c0 0.281-0.219 0.5-0.5 0.5h-10c-0.281 0-0.5-0.219-0.5-0.5v-3c0-0.281 0.219-0.5 0.5-0.5h10c0.281 0 0.5 0.219 0.5 0.5zM28 0.5v3c0 0.281-0.219 0.5-0.5 0.5h-13c-0.281 0-0.5-0.219-0.5-0.5v-3c0-0.281 0.219-0.5 0.5-0.5h13c0.281 0 0.5 0.219 0.5 0.5z"></path>
</symbol>
<symbol id="icon-plus" viewBox="0 0 24 24">
<path d="M1.938 13.437h8.625v8.625c0 0.793 0.644 1.437 1.437 1.437s1.437-0.644 1.437-1.437v-8.625h8.625c0.794 0 1.437-0.644 1.437-1.437s-0.644-1.437-1.437-1.437h-8.625v-8.625c0-0.794-0.644-1.437-1.437-1.437s-1.437 0.644-1.437 1.437v8.625h-8.625c-0.794 0-1.437 0.644-1.437 1.437s0.644 1.437 1.437 1.437z"></path>
</symbol>
<symbol id="icon-up-arrow" viewBox="0 0 32 32">
<path d="M16 4c0.354 0 0.693 0.14 0.943 0.391l9.333 9.333c0.521 0.521 0.521 1.365 0 1.886s-1.365 0.521-1.886 0l-7.057-7.057v18.114c0 0.736-0.597 1.333-1.333 1.333s-1.333-0.597-1.333-1.333v-18.114l-7.057 7.057c-0.521 0.521-1.365 0.521-1.886 0s-0.521-1.365 0-1.886l9.333-9.333c0.25-0.25 0.589-0.391 0.943-0.391z"></path>
</symbol>
<symbol id="icon-trashbin" viewBox="0 0 32 32">
<path d="M5.256 6.021v25.979h21.516v-25.979h-21.516zM10.846 28.333h-3.536v-18.436h3.538l-0.001 18.436zM17.575 28.333h-3.54v-18.436h3.54c0 0 0 18.436 0 18.436zM24.303 28.333h-3.538v-18.436h3.538v18.436z"></path>
<path d="M25.226 4.688l1.518-0.005-0.003-3.038-6.914-0.008-0.013-0.832c-2.079-1.107-6.025-1.038-7.612-0.018v0.889h-6.975l0.005 3.040h1.518l18.476-0.029z"></path>
</symbol>
<symbol id="icon-pencil" viewBox="0 0 32 32">
<path d="M27 0c2.761 0 5 2.239 5 5 0 1.126-0.372 2.164-1 3l-2 2-7-7 2-2c0.836-0.628 1.874-1 3-1zM2 23l-2 9 9-2 18.5-18.5-7-7-18.5 18.5zM22.362 11.362l-14 14-1.724-1.724 14-14 1.724 1.724z"></path>
</symbol>
</defs>
</svg>
